<?xml version="1.0" standalone="no"?>
<!DOCTYPE svg PUBLIC "-//W3C//DTD SVG 20010904//EN"
 "http://www.w3.org/TR/2001/REC-SVG-20010904/DTD/svg10.dtd">
<svg version="1.0" xmlns="http://www.w3.org/2000/svg"
 width="330.000000pt" height="330.000000pt" viewBox="0 0 330.000000 330.000000"
 preserveAspectRatio="xMidYMid meet">
<metadata>
Created by potrace 1.16, written by Peter Selinger 2001-2019
</metadata>
<g transform="translate(0.000000,330.000000) scale(0.100000,-0.100000)"
fill="#f65261" stroke="none">
<path d="M277 2609 c-83 -20 -138 -68 -157 -140 -15 -55 2 -132 43 -200 50
-82 1193 -1628 1240 -1677 23 -24 70 -57 104 -74 52 -25 73 -30 135 -30 139 1
213 47 333 207 464 621 1145 1552 1168 1596 41 80 47 159 15 219 -19 35 -37
52 -83 75 l-59 30 -1350 2 c-772 0 -1367 -3 -1389 -8z"/>
</g>
</svg>
